{
	"asset":{
		"generator":"Khronos glTF Blender I/O v3.6.27",
		"version":"2.0"
	},
	"extensionsUsed":[
		"KHR_materials_specular",
		"KHR_materials_ior"
	],
	"scene":0,
	"scenes":[
		{
			"name":"Scene",
			"nodes":[
				0
			]
		}
	],
	"nodes":[
		{
			"mesh":0,
			"name":"Ethane.mol",
			"rotation":[
				0.7071068286895752,
				0,
				0,
				0.7071068286895752
			]
		}
	],
	"materials":[
		{
			"doubleSided":true,
			"extensions":{
				"KHR_materials_specular":{
					"specularColorFactor":[
						0.020080160244135427,
						0.020080160244135427,
						0.020080160244135427
					]
				},
				"KHR_materials_ior":{
					"ior":0.0010000000474974513
				}
			},
			"name":"k000000",
			"pbrMetallicRoughness":{
				"baseColorFactor":[
					0,
					0,
					0,
					1
				],
				"metallicFactor":0,
				"roughnessFactor":0.5962674021720886
			}
		},
		{
			"doubleSided":true,
			"extensions":{
				"KHR_materials_specular":{
					"specularColorFactor":[
						0.020080160244135427,
						0.020080160244135427,
						0.020080160244135427
					]
				},
				"KHR_materials_ior":{
					"ior":0.0010000000474974513
				}
			},
			"name":"kffffff",
			"pbrMetallicRoughness":{
				"metallicFactor":0,
				"roughnessFactor":0.5962674021720886
			}
		},
		{
			"doubleSided":true,
			"extensions":{
				"KHR_materials_specular":{
					"specularColorFactor":[
						0.020080160244135427,
						0.020080160244135427,
						0.020080160244135427
					]
				},
				"KHR_materials_ior":{
					"ior":0.0010000000474974513
				}
			},
			"name":"k808080",
			"pbrMetallicRoughness":{
				"baseColorFactor":[
					0.5040000081062317,
					0.5040000081062317,
					0.5040000081062317,
					1
				],
				"metallicFactor":0,
				"roughnessFactor":0.5962674021720886
			}
		}
	],
	"meshes":[
		{
			"name":"Ethane.mol",
			"primitives":[
				{
					"attributes":{
						"POSITION":0,
						"NORMAL":1
					},
					"indices":2,
					"material":0
				},
				{
					"attributes":{
						"POSITION":3,
						"NORMAL":4
					},
					"indices":5,
					"material":1
				},
				{
					"attributes":{
						"POSITION":6,
						"NORMAL":7
					},
					"indices":8,
					"material":2
				}
			]
		}
	],
	"accessors":[
		{
			"bufferView":0,
			"componentType":5126,
			"count":2067,
			"max":[
				1.180999994277954,
				0.42500001192092896,
				0.42500001192092896
			],
			"min":[
				-1.180999994277954,
				-0.42500001192092896,
				-0.42500001192092896
			],
			"type":"VEC3"
		},
		{
			"bufferView":1,
			"componentType":5126,
			"count":2067,
			"type":"VEC3"
		},
		{
			"bufferView":2,
			"componentType":5123,
			"count":7680,
			"type":"SCALAR"
		},
		{
			"bufferView":3,
			"componentType":5126,
			"count":6115,
			"max":[
				1.4154999256134033,
				1.2375999689102173,
				1.2836999893188477
			],
			"min":[
				-1.4154999256134033,
				-1.2375999689102173,
				-1.2836999893188477
			],
			"type":"VEC3"
		},
		{
			"bufferView":4,
			"componentType":5126,
			"count":6115,
			"type":"VEC3"
		},
		{
			"bufferView":5,
			"componentType":5123,
			"count":23040,
			"type":"SCALAR"
		},
		{
			"bufferView":6,
			"componentType":5126,
			"count":15389,
			"max":[
				1.241499900817871,
				1.063599944114685,
				1.1096999645233154
			],
			"min":[
				-1.241499900817871,
				-1.063599944114685,
				-1.1096999645233154
			],
			"type":"VEC3"
		},
		{
			"bufferView":7,
			"componentType":5126,
			"count":15389,
			"type":"VEC3"
		},
		{
			"bufferView":8,
			"componentType":5123,
			"count":55272,
			"type":"SCALAR"
		}
	],
	"bufferViews":[
		{
			"buffer":0,
			"byteLength":24804,
			"byteOffset":0,
			"target":34962
		},
		{
			"buffer":0,
			"byteLength":24804,
			"byteOffset":24804,
			"target":34962
		},
		{
			"buffer":0,
			"byteLength":15360,
			"byteOffset":49608,
			"target":34963
		},
		{
			"buffer":0,
			"byteLength":73380,
			"byteOffset":64968,
			"target":34962
		},
		{
			"buffer":0,
			"byteLength":73380,
			"byteOffset":138348,
			"target":34962
		},
		{
			"buffer":0,
			"byteLength":46080,
			"byteOffset":211728,
			"target":34963
		},
		{
			"buffer":0,
			"byteLength":184668,
			"byteOffset":257808,
			"target":34962
		},
		{
			"buffer":0,
			"byteLength":184668,
			"byteOffset":442476,
			"target":34962
		},
		{
			"buffer":0,
			"byteLength":110544,
			"byteOffset":627144,
			"target":34963
		}
	],
	"buffers":[
		{
			"byteLength":737688,
			"uri":"data:application/octet-stream;base64,"
		}
	]
}
